<?xml version="1.0" standalone="no"?>
<!DOCTYPE svg PUBLIC "-//W3C//DTD SVG 20010904//EN"
 "http://www.w3.org/TR/2001/REC-SVG-20010904/DTD/svg10.dtd">
<svg version="1.0" xmlns="http://www.w3.org/2000/svg"
 width="149.000000pt" height="146.000000pt" viewBox="0 0 149.000000 146.000000"
 preserveAspectRatio="xMidYMid meet">

<g transform="translate(0.000000,146.000000) scale(0.100000,-0.100000)"
fill="#689F38" stroke="none">
<path d="M705 1375 c-96 -34 -131 -123 -122 -315 7 -150 46 -374 85 -490 58
-169 143 -301 234 -363 56 -37 135 -64 149 -50 11 11 31 171 27 219 l-3 39
-67 6 c-37 3 -75 12 -85 19 -77 59 -113 117 -143 233 -20 82 -24 143 -22 350
2 144 2 147 22 137 11 -6 77 -22 147 -36 202 -41 285 -91 337 -203 17 -38 21
-65 20 -151 0 -91 -4 -114 -27 -170 -15 -36 -36 -76 -47 -90 l-18 -25 -7 30
c-34 151 -116 302 -230 422 l-55 58 84 -175 c47 -96 100 -218 118 -270 31 -90
33 -102 33 -238 0 -172 6 -177 90 -74 62 74 115 177 136 262 20 78 17 260 -5
340 -21 78 -91 230 -137 296 -48 70 -138 156 -200 192 -101 58 -229 77 -314
47z"/>
<path d="M464 1271 c-74 -34 -149 -153 -221 -351 -108 -297 -125 -478 -61
-648 21 -55 90 -142 113 -142 7 0 33 70 63 172 86 291 142 544 163 745 11 106
6 243 -9 243 -4 0 -25 -9 -48 -19z"/>
<path d="M551 720 c-19 -98 -86 -349 -129 -492 l-40 -128 33 0 c53 0 171 66
241 135 l64 63 -50 103 c-48 99 -78 203 -97 329 l-9 55 -13 -65z"/>
</g>
</svg>
